<?xml version="1.0" standalone="no"?>
<!DOCTYPE svg PUBLIC "-//W3C//DTD SVG 20010904//EN"
 "http://www.w3.org/TR/2001/REC-SVG-20010904/DTD/svg10.dtd">
<svg version="1.0" xmlns="http://www.w3.org/2000/svg"
 width="512.000000pt" height="512.000000pt" viewBox="0 0 512.000000 512.000000"
 preserveAspectRatio="xMidYMid meet">
<metadata>
Created by potrace 1.14, written by Peter Selinger 2001-2017
</metadata>
<g transform="translate(0.000000,512.000000) scale(0.100000,-0.100000)"
fill="#000000" stroke="none">
<path d="M2370 5114 c-19 -2 -78 -9 -130 -14 -253 -28 -571 -121 -818 -240
-248 -120 -291 -155 -292 -237 -1 -23 -12 -36 -63 -73 -34 -25 -107 -84 -163
-132 -736 -634 -1018 -1547 -769 -2495 191 -729 708 -1369 1361 -1688 680
-332 1443 -309 2184 66 164 83 192 108 198 182 7 88 -39 149 -124 163 -35 5
-55 -2 -187 -71 -539 -280 -1013 -361 -1509 -260 -705 144 -1323 679 -1627
1408 -303 729 -237 1524 178 2144 186 279 456 540 695 673 383 213 759 313
1186 313 290 0 539 -42 810 -135 137 -48 382 -164 500 -238 802 -501 1222
-1355 1080 -2196 -53 -315 -183 -631 -379 -924 -89 -132 -99 -166 -66 -216 22
-33 78 -57 117 -49 78 18 303 408 396 690 141 424 164 902 66 1345 -145 650
-522 1205 -1064 1563 -58 38 -190 111 -295 163 -268 132 -479 198 -760 240
-96 14 -452 27 -525 18z"/>
<path d="M2592 4173 c-85 -42 -100 -129 -58 -337 15 -71 25 -130 24 -131 -2
-2 -110 -6 -240 -10 l-237 -8 -3 208 -3 207 -33 29 c-43 38 -98 40 -141 3 -38
-32 -45 -69 -32 -170 5 -43 13 -121 17 -173 l6 -94 -68 8 c-38 3 -113 15 -168
25 -87 17 -102 18 -126 5 -31 -16 -40 -33 -40 -74 0 -67 119 -116 327 -137
l73 -7 -6 -86 c-3 -47 -12 -169 -19 -271 -27 -353 -40 -660 -61 -1413 l-7
-248 -158 3 c-155 3 -158 3 -183 -21 -31 -29 -35 -78 -8 -111 22 -27 80 -39
193 -40 48 0 101 -3 119 -6 l32 -7 -7 -168 c-7 -163 -7 -168 16 -208 24 -43
84 -81 129 -81 47 0 109 40 132 83 20 39 20 51 14 208 l-7 166 53 -4 c141 -10
384 -36 391 -42 4 -4 -7 -76 -24 -160 l-31 -152 23 -46 c32 -61 76 -86 147
-80 61 4 99 28 125 78 23 42 18 155 -12 266 l-19 73 132 0 c237 0 385 29 541
105 290 142 465 406 465 702 -1 250 -119 438 -350 553 -36 18 -67 34 -69 36
-2 2 8 17 22 33 47 56 95 146 123 226 35 106 44 269 20 365 -49 194 -177 329
-366 387 -54 17 -304 43 -413 43 l-79 0 7 43 c4 23 18 92 33 152 33 141 33
184 -2 230 -49 64 -124 83 -194 48z m118 -684 c368 -29 502 -77 572 -205 88
-163 36 -394 -118 -520 l-45 -37 -117 2 c-178 3 -333 -30 -389 -82 -33 -29
-29 -64 10 -101 34 -32 34 -32 203 -44 270 -19 421 -63 564 -163 121 -85 170
-178 170 -323 0 -260 -165 -446 -462 -521 -181 -45 -407 -53 -648 -23 -47 6
-152 13 -235 17 l-150 6 -6 130 c-4 72 -10 364 -14 650 -6 416 -4 588 9 861 9
188 16 349 16 357 0 15 26 16 253 11 138 -2 313 -9 387 -15z"/>
</g>
</svg>
